PathFileType	4	(X/Y/Z)	54_1_42_p0_0-387_filt_butterworth.trc
DataRate	CameraRate	NumFrames	NumMarkers	Units	OrigDataRate	OrigDataStartFrame	OrigNumFrames
59.0	59.0	5	27	m	59.0	241	387
Frame#	Time	RHip			RKnee			RAnkle			RBigToe			RSmallToe			RHeel			LHip			LKnee			LAnkle			LBigToe			LSmallToe			LHeel			Neck			Head			Nose			RShoulder			RElbow			RWrist			RThumb			RIndex			RPinky			LShoulder			LElbow			LWrist			LThumb			LIndex			LPinky			
		X1	Y1	Z1	X2	Y2	Z2	X3	Y3	Z3	X4	Y4	Z4	X5	Y5	Z5	X6	Y6	Z6	X7	Y7	Z7	X8	Y8	Z8	X9	Y9	Z9	X10	Y10	Z10	X11	Y11	Z11	X12	Y12	Z12	X13	Y13	Z13	X14	Y14	Z14	X15	Y15	Z15	X16	Y16	Z16	X17	Y17	Z17	X18	Y18	Z18	X19	Y19	Z19	X20	Y20	Z20	X21	Y21	Z21	X22	Y22	Z22	X23	Y23	Z23	X24	Y24	Z24	X25	Y25	Z25	X26	Y26	Z26	X27	Y27	Z27	
241	4.084745762711864	0.2927069451411705	0.5190192937521677	1.0966657648883575	0.2964815241839561	0.542866218620226	1.5399074128662331	0.29628264920908653	0.5605809215153071	1.938288050897084	0.23129792834520965	0.3832139530549955	1.9530829934725265	0.3006762873590078	0.363527214972567	1.9382714990793548	0.269631766593549	0.6565954994511134	2.014621241728495	0.06791948297605978	0.5417050872010686	1.1112445903307924	0.06480612537398346	0.5716295179909153	1.5461197020201376	0.07515118529020491	0.5689151257977567	1.9497401024664351	0.08117137830282466	0.3815183981572394	1.9351350201609547	0.020633923000084604	0.4339907609130369	1.9613092488209234	0.09401420168266901	0.6170965312549012	2.0168607900345483	0.18515766186088678	0.57142416898014	0.5584844227319927	0.18576008081384754	0.541942858243456	0.3239021749123374	0.18448644457376792	0.43995937146313907	0.43593609659233074	0.3391345389950999	0.5211967100787336	0.620388414967405	0.3269100151906702	0.42058975521628017	0.7879246387991885	0.31944482426706633	0.36375543131843946	0.7214423087795734	0.36380204404492766	0.4067792642191833	0.53878982470297	0.3663575707748131	0.35367364021446407	0.5154107633786141	0.13927873437260282	0.39629780179505136	1.0008619581937686	0.035372924756376836	0.5306524719111831	0.6323351943201285	0.0031474216851610773	0.48029139063788967	0.8564410980985485	0.16101630674347087	0.3574305859396297	0.8484452824638201	0.2610659829850738	0.37246117628922715	0.8166895688452935	0.2728406142685124	0.36221693793136117	0.8394875110679434	0.24808297350725292	0.3444907377045783	0.8728755684985765
242	4.101694915254237	0.2926312759894874	0.5192378786613214	1.0959491370341614	0.2971555043588139	0.5433470317682708	1.5418760659607664	0.296503324621263	0.5607812669553586	1.9397222904312412	0.23162698365297052	0.3842122453746209	1.9536871121090118	0.3005948095540168	0.36349110217275704	1.9381943334383183	0.26906047690577173	0.6531642475154061	2.012295592667106	0.06834297375336135	0.5403772936526688	1.11074081425946	0.06469227168317385	0.57135980973266	1.5455087727512469	0.07520756397944448	0.5689447048678967	1.949692903262116	0.08112979029424087	0.3814737560735458	1.9351143053919981	0.020895027821088305	0.4353877766938802	1.9611057109760694	0.0931730179643078	0.6141918431779342	2.0148442563614544	0.18514170204836478	0.5714205705513412	0.5584821228166501	0.18612791567153023	0.5405883194126919	0.3240701423077772	0.18439113163104975	0.43947079479202084	0.4358430756050008	0.3402219026815436	0.5215329591353965	0.6204545094403106	0.3268945057831821	0.4205999855840974	0.7879447144831471	0.31515478242586314	0.3675150700060598	0.7257755791007692	0.3641670656800875	0.40705034927146233	0.5385637307115768	0.3663590267675279	0.35365493954523747	0.5154151615172013	0.1376600694032801	0.3974559894947165	1.004144651822402	0.03537138918488459	0.5305773564388468	0.6323262025193026	0.004056479340556135	0.4804684522124929	0.8567819382365616	0.16102627330958064	0.3576687645279613	0.8484843212238655	0.2620170224695171	0.3736613965342059	0.8165015853105739	0.27305104547503706	0.3623899503005899	0.8395105487583029	0.24840577171544945	0.3442848204969707	0.8737646466169462
243	4.11864406779661	0.2925966658896386	0.5193588588384954	1.0958236520304212	0.2983628235118583	0.5442915107971674	1.544765424966213	0.2968277228632669	0.5611541681686787	1.9416939438740517	0.23159130158299218	0.384254007443111	1.9535894625056462	0.3005024910822165	0.3632749188669198	1.9380392184077633	0.2683681806306667	0.6488228358050386	2.0112184206296693	0.06900584839773476	0.5382721289598861	1.1099596250043908	0.06460716569503774	0.5712141694951108	1.5449132009647135	0.07534803947230558	0.5688258737191034	1.9500844633115857	0.08109686140498501	0.3814652059042146	1.93503724324182	0.021959637478070768	0.4339589212744931	1.9594079176660233	0.09206097937336588	0.6103452840492009	2.0122685244663288	0.18512493881005956	0.571444870530865	0.5584825650367778	0.1870468713285628	0.5370391257303088	0.324425271027292	0.18426194515186015	0.43863854553692894	0.43568751227774793	0.3407219262653941	0.5216130446163145	0.6205029002192298	0.32723614491290565	0.4191340970114901	0.7879179434338351	0.2953970756235304	0.3733150601755451	0.7632708485084665	0.3649493046673196	0.40548622227743525	0.5373626617881302	0.3666550187594648	0.3539380634374272	0.5153278842016834	0.13486394295774765	0.39965850697837024	1.0106632205732857	0.03537321702511759	0.5305491405263087	0.6323881644073093	0.004409179450052244	0.48048713008428723	0.856728768783318	0.16103054097025227	0.35787115762462973	0.8485087226758291	0.2618531088610246	0.3738048928104393	0.8166095245083457	0.2732939672648599	0.3626046213893365	0.8395837282931699	0.24865967994820154	0.34448584602744925	0.8729945985583356
244	4.135593220338983	0.2926111358159001	0.5193943073416133	1.0959993121702685	0.2996804452749213	0.5452862400059235	1.5469324489321208	0.2970777229815235	0.5614346071801646	1.9432181334080458	0.2314146758431192	0.3838885649779551	1.9532210157295107	0.3004562363137476	0.36309175913670066	1.937889298070299	0.26756240707866624	0.6455443765197569	2.011695249540112	0.06934627000658938	0.537150437264644	1.1095582481844637	0.06458325758972304	0.5711527121779768	1.5446956191906178	0.07546425061462823	0.5683835672569287	1.9512564893076623	0.08098370611506213	0.38147341774004717	1.9353976419436676	0.023278546905773044	0.43002340047534204	1.9573436942773081	0.09123886526336718	0.6074846509450859	2.0104880929889686	0.1851134266855848	0.571490665435514	0.558481170190984	0.1882479265159225	0.5323573654326873	0.32485044023336473	0.18417401221999521	0.43799886552121653	0.43555708067110266	0.3407162413937598	0.5213884251254006	0.6205210125746465	0.3281311124791723	0.41553431358243414	0.7878373166805744	0.29148005562942764	0.37403213503295574	0.7714143826172065	0.36583719068377785	0.40278794337815854	0.5353147743425319	0.36733705181281806	0.3546630348406429	0.5150764292814065	0.13470332613780678	0.40026598181930967	1.0123955426654545	0.03538001867437319	0.5305560543251753	0.6325048366290982	0.004407277931972831	0.4803968134407666	0.8566458438295977	0.16093787938114204	0.35792143157452716	0.8484662407983192	0.26098859799847257	0.3729794864347967	0.8170807307607968	0.2735247447593606	0.36274562230759094	0.8399244969082017	0.2490796914833068	0.3453936769665707	0.8723049427172521
245	4.152542372881356	0.2926423775095436	0.5193971545711884	1.0962090590919442	0.30058306950827146	0.5459523046007988	1.5473299679849235	0.29715843072935344	0.5614936562363331	1.9438261827443641	0.23098487206875948	0.38272539033367486	1.9523519344161258	0.3004706506700254	0.3632066195274405	1.9378317022451235	0.26690542135036227	0.644141655452318	2.012712623117041	0.06907682856855059	0.5379315175947463	1.1098627837494535	0.06459379028888895	0.5711377232229689	1.5447086736049847	0.07521078092870581	0.5675483119915081	1.9529980593008869	0.08070406633032576	0.38146151299139613	1.9364875594330446	0.024202787926278085	0.4250646501740404	1.955906290818849	0.09096824333568383	0.6064633708550867	2.0101831490251443	0.1851055510478052	0.571525304876497	0.558477349027292	0.18914193165282303	0.5288146014969283	0.3252999591931254	0.18415484991928974	0.4377451468168194	0.43548776632939523	0.340161120926333	0.5207163832581112	0.620416994424309	0.3293577019572951	0.41106634783756746	0.7876455354468185	0.3168872719935531	0.3702582906069942	0.723001078182513	0.36521864558723544	0.3988303835239129	0.5329313615604445	0.3677506667491378	0.35525552169544167	0.5147944669072916	0.14617746804490664	0.39281317180284075	0.9897689341199635	0.03539479715450113	0.5306000760183455	0.6325027368718593	0.004306188635180548	0.48010888534270985	0.8568871531142659	0.16081205289708014	0.3579259078464489	0.8484911012874277	0.25991011335289693	0.37134471895803	0.8182513457552684	0.27350292893305506	0.3625189946429145	0.8408123788382644	0.24999093726702445	0.34721084090653526	0.873616681310861
